<svg width="30" height="30" viewBox="0 0 30 30" fill="none" xmlns="http://www.w3.org/2000/svg">
<mask id="mask0_7_2915" style="mask-type:alpha" maskUnits="userSpaceOnUse" x="0" y="0" width="30" height="30">
<rect width="30" height="30" fill="#F1C049"/>
</mask>
<g mask="url(#mask0_7_2915)">
<path d="M19.0924 14.563C21.774 14.563 23.9479 12.3891 23.9479 9.70752C23.9479 7.02591 21.774 4.85203 19.0924 4.85203C16.4108 4.85203 14.2369 7.02591 14.2369 9.70752C14.2369 12.3891 16.4108 14.563 19.0924 14.563Z" fill="url(#paint0_linear_7_2915)"/>
<path d="M19.0925 3.7422C18.7873 3.7422 18.5376 3.49249 18.5376 3.18729V2.35492C18.5376 2.04971 18.7873 1.8 19.0925 1.8C19.3977 1.8 19.6474 2.04971 19.6474 2.35492V3.18729C19.6474 3.49249 19.3977 3.7422 19.0925 3.7422Z" fill="url(#paint1_linear_7_2915)"/>
<path d="M19.0925 15.6728C18.7873 15.6728 18.5376 15.9225 18.5376 16.2277V17.0601C18.5376 17.3653 18.7873 17.615 19.0925 17.615C19.3977 17.615 19.6474 17.3653 19.6474 17.0601V16.2277C19.6474 15.9198 19.3977 15.6728 19.0925 15.6728Z" fill="url(#paint2_linear_7_2915)"/>
<path d="M14.8724 5.4874C14.656 5.70381 14.3036 5.70381 14.0872 5.4874L13.499 4.89919C13.2826 4.68277 13.2826 4.3304 13.499 4.11399C13.7154 3.89757 14.0678 3.89757 14.2842 4.11399L14.8724 4.7022C15.0888 4.92139 15.0888 5.27098 14.8724 5.4874Z" fill="url(#paint3_linear_7_2915)"/>
<path d="M23.3098 13.9249C23.0934 14.1413 23.0934 14.4936 23.3098 14.7101L23.898 15.2983C24.1144 15.5147 24.4668 15.5147 24.6832 15.2983C24.8996 15.0819 24.8996 14.7295 24.6832 14.5131L24.095 13.9249C23.8786 13.7084 23.5262 13.7084 23.3098 13.9249Z" fill="url(#paint4_linear_7_2915)"/>
<path d="M13.1271 9.70752C13.1271 10.0127 12.8774 10.2624 12.5722 10.2624H11.7398C11.4346 10.2624 11.1849 10.0127 11.1849 9.70752C11.1849 9.40231 11.4346 9.1526 11.7398 9.1526H12.5722C12.8774 9.1526 13.1271 9.39954 13.1271 9.70752Z" fill="url(#paint5_linear_7_2915)"/>
<path d="M25.0577 9.70752C25.0577 10.0127 25.3075 10.2624 25.6127 10.2624H26.445C26.7502 10.2624 26.9999 10.0127 26.9999 9.70752C26.9999 9.40231 26.7502 9.1526 26.445 9.1526H25.6127C25.3047 9.1526 25.0577 9.39954 25.0577 9.70752Z" fill="url(#paint6_linear_7_2915)"/>
<path d="M14.8724 13.9249C15.0888 14.1413 15.0888 14.4936 14.8724 14.7101L14.2842 15.2983C14.0678 15.5147 13.7154 15.5147 13.499 15.2983C13.2826 15.0819 13.2826 14.7295 13.499 14.5131L14.0872 13.9249C14.3064 13.7084 14.656 13.7084 14.8724 13.9249Z" fill="url(#paint7_linear_7_2915)"/>
<path d="M23.3098 5.4874C23.5262 5.70381 23.8786 5.70381 24.095 5.4874L24.6832 4.89919C24.8996 4.68277 24.8996 4.3304 24.6832 4.11399C24.4668 3.89757 24.1144 3.89757 23.898 4.11399L23.3098 4.7022C23.0934 4.92139 23.0934 5.27098 23.3098 5.4874Z" fill="url(#paint8_linear_7_2915)"/>
<path d="M23.2543 17.1739C23.2543 18.5917 22.68 19.8763 21.7505 20.803C20.8238 21.7325 19.5392 22.3068 18.1214 22.3068H10.7688C10.5829 22.3068 10.397 22.3013 10.2139 22.2846C6.18243 22.0016 3 18.6416 3 14.538C3 10.2486 6.47931 6.76926 10.7688 6.76926C14.1843 6.76926 17.0865 8.97503 18.1242 12.0409C20.9598 12.0437 23.2543 14.3383 23.2543 17.1739Z" fill="url(#paint9_linear_7_2915)"/>
<path d="M7.5253 25.1091C7.76669 25.6529 7.45039 26.3161 6.86219 26.3965C6.82057 26.4021 6.77617 26.4049 6.73178 26.4049C6.68739 26.4049 6.64576 26.4021 6.60414 26.3965C6.01594 26.3161 5.69964 25.6529 5.94103 25.1091L6.09362 24.7623L6.73178 23.3195L7.36993 24.7595L7.5253 25.1091Z" fill="url(#paint10_linear_7_2915)"/>
<path d="M13.9179 26.6518C14.1593 27.1956 13.843 27.8587 13.2548 27.9392C13.2131 27.9447 13.1687 27.9475 13.1243 27.9475C13.08 27.9475 13.0383 27.9447 12.9967 27.9392C12.4085 27.8587 12.0922 27.1956 12.3336 26.6518L12.4862 26.305L13.1243 24.8622L13.7625 26.3022L13.9179 26.6518Z" fill="url(#paint11_linear_7_2915)"/>
<path d="M20.3133 25.1091C20.5547 25.6529 20.2384 26.316 19.6501 26.3965C19.6085 26.4021 19.5641 26.4048 19.5197 26.4048C19.4754 26.4048 19.4337 26.4021 19.3921 26.3965C18.8039 26.316 18.4876 25.6529 18.729 25.1091L18.8816 24.7623L19.5197 23.3195L20.1579 24.7595L20.3133 25.1091Z" fill="url(#paint12_linear_7_2915)"/>
</g>
<defs>
<linearGradient id="paint0_linear_7_2915" x1="15.1025" y1="7.73583" x2="23.6379" y2="11.9534" gradientUnits="userSpaceOnUse">
<stop stop-color="#F6D651"/>
<stop offset="0.1382" stop-color="#F5D04F"/>
<stop offset="0.3576" stop-color="#F1C049"/>
<stop offset="0.3611" stop-color="#F1BF49"/>
<stop offset="0.4848" stop-color="#F3BC4A"/>
<stop offset="0.6477" stop-color="#F6B14B"/>
<stop offset="1" stop-color="#F5A74E"/>
</linearGradient>
<linearGradient id="paint1_linear_7_2915" x1="18.4842" y1="2.47037" x2="19.7837" y2="3.11248" gradientUnits="userSpaceOnUse">
<stop stop-color="#F6D651"/>
<stop offset="0.1382" stop-color="#F5D04F"/>
<stop offset="0.3576" stop-color="#F1C049"/>
<stop offset="0.3611" stop-color="#F1BF49"/>
<stop offset="0.4848" stop-color="#F3BC4A"/>
<stop offset="0.6477" stop-color="#F6B14B"/>
<stop offset="1" stop-color="#F5A74E"/>
</linearGradient>
<linearGradient id="paint2_linear_7_2915" x1="18.4842" y1="16.9434" x2="19.7837" y2="16.3012" gradientUnits="userSpaceOnUse">
<stop stop-color="#F6D651"/>
<stop offset="0.1382" stop-color="#F5D04F"/>
<stop offset="0.3576" stop-color="#F1C049"/>
<stop offset="0.3611" stop-color="#F1BF49"/>
<stop offset="0.4848" stop-color="#F3BC4A"/>
<stop offset="0.6477" stop-color="#F6B14B"/>
<stop offset="1" stop-color="#F5A74E"/>
</linearGradient>
<linearGradient id="paint3_linear_7_2915" x1="13.544" y1="5.0193" x2="14.9169" y2="4.55444" gradientUnits="userSpaceOnUse">
<stop stop-color="#F6D651"/>
<stop offset="0.1382" stop-color="#F5D04F"/>
<stop offset="0.3576" stop-color="#F1C049"/>
<stop offset="0.3611" stop-color="#F1BF49"/>
<stop offset="0.4848" stop-color="#F3BC4A"/>
<stop offset="0.6477" stop-color="#F6B14B"/>
<stop offset="1" stop-color="#F5A74E"/>
</linearGradient>
<linearGradient id="paint4_linear_7_2915" x1="23.7783" y1="15.2538" x2="24.2432" y2="13.8808" gradientUnits="userSpaceOnUse">
<stop stop-color="#F6D651"/>
<stop offset="0.1382" stop-color="#F5D04F"/>
<stop offset="0.3576" stop-color="#F1C049"/>
<stop offset="0.3611" stop-color="#F1BF49"/>
<stop offset="0.4848" stop-color="#F3BC4A"/>
<stop offset="0.6477" stop-color="#F6B14B"/>
<stop offset="1" stop-color="#F5A74E"/>
</linearGradient>
<linearGradient id="paint5_linear_7_2915" x1="11.8549" y1="10.3141" x2="12.497" y2="9.01465" gradientUnits="userSpaceOnUse">
<stop stop-color="#F6D651"/>
<stop offset="0.1382" stop-color="#F5D04F"/>
<stop offset="0.3576" stop-color="#F1C049"/>
<stop offset="0.3611" stop-color="#F1BF49"/>
<stop offset="0.4848" stop-color="#F3BC4A"/>
<stop offset="0.6477" stop-color="#F6B14B"/>
<stop offset="1" stop-color="#F5A74E"/>
</linearGradient>
<linearGradient id="paint6_linear_7_2915" x1="26.3279" y1="10.3141" x2="25.6858" y2="9.01465" gradientUnits="userSpaceOnUse">
<stop stop-color="#F6D651"/>
<stop offset="0.1382" stop-color="#F5D04F"/>
<stop offset="0.3576" stop-color="#F1C049"/>
<stop offset="0.3611" stop-color="#F1BF49"/>
<stop offset="0.4848" stop-color="#F3BC4A"/>
<stop offset="0.6477" stop-color="#F6B14B"/>
<stop offset="1" stop-color="#F5A74E"/>
</linearGradient>
<linearGradient id="paint7_linear_7_2915" x1="14.4038" y1="15.2538" x2="13.9389" y2="13.8809" gradientUnits="userSpaceOnUse">
<stop stop-color="#F6D651"/>
<stop offset="0.1382" stop-color="#F5D04F"/>
<stop offset="0.3576" stop-color="#F1C049"/>
<stop offset="0.3611" stop-color="#F1BF49"/>
<stop offset="0.4848" stop-color="#F3BC4A"/>
<stop offset="0.6477" stop-color="#F6B14B"/>
<stop offset="1" stop-color="#F5A74E"/>
</linearGradient>
<linearGradient id="paint8_linear_7_2915" x1="24.6382" y1="5.01934" x2="23.2653" y2="4.55451" gradientUnits="userSpaceOnUse">
<stop stop-color="#F6D651"/>
<stop offset="0.1382" stop-color="#F5D04F"/>
<stop offset="0.3576" stop-color="#F1C049"/>
<stop offset="0.3611" stop-color="#F1BF49"/>
<stop offset="0.4848" stop-color="#F3BC4A"/>
<stop offset="0.6477" stop-color="#F6B14B"/>
<stop offset="1" stop-color="#F5A74E"/>
</linearGradient>
<linearGradient id="paint9_linear_7_2915" x1="4.57867" y1="11.4781" x2="22.7371" y2="20.4508" gradientUnits="userSpaceOnUse">
<stop stop-color="white"/>
<stop offset="0.3611" stop-color="white"/>
<stop offset="0.4727" stop-color="#FBFBFB"/>
<stop offset="0.6249" stop-color="#ECEBEB"/>
<stop offset="0.6477" stop-color="#E9E8E8"/>
<stop offset="1" stop-color="#8B8B8B"/>
</linearGradient>
<linearGradient id="paint10_linear_7_2915" x1="6.71957" y1="24.593" x2="6.74554" y2="26.4397" gradientUnits="userSpaceOnUse">
<stop stop-color="#35939E"/>
<stop offset="0.1221" stop-color="#3798A3"/>
<stop offset="0.3159" stop-color="#3AA6B0"/>
<stop offset="0.3611" stop-color="#3BAAB4"/>
<stop offset="0.4971" stop-color="#46AEBA"/>
<stop offset="0.6477" stop-color="#5AB8C6"/>
<stop offset="1" stop-color="#66BDCD"/>
</linearGradient>
<linearGradient id="paint11_linear_7_2915" x1="13.1134" y1="26.1357" x2="13.1394" y2="27.9824" gradientUnits="userSpaceOnUse">
<stop stop-color="#35939E"/>
<stop offset="0.1221" stop-color="#3798A3"/>
<stop offset="0.3159" stop-color="#3AA6B0"/>
<stop offset="0.3611" stop-color="#3BAAB4"/>
<stop offset="0.4971" stop-color="#46AEBA"/>
<stop offset="0.6477" stop-color="#5AB8C6"/>
<stop offset="1" stop-color="#66BDCD"/>
</linearGradient>
<linearGradient id="paint12_linear_7_2915" x1="19.5073" y1="24.593" x2="19.5333" y2="26.4397" gradientUnits="userSpaceOnUse">
<stop stop-color="#35939E"/>
<stop offset="0.1221" stop-color="#3798A3"/>
<stop offset="0.3159" stop-color="#3AA6B0"/>
<stop offset="0.3611" stop-color="#3BAAB4"/>
<stop offset="0.4971" stop-color="#46AEBA"/>
<stop offset="0.6477" stop-color="#5AB8C6"/>
<stop offset="1" stop-color="#66BDCD"/>
</linearGradient>
</defs>
</svg>
