<svg width="30" height="30" viewBox="0 0 30 30" fill="none" xmlns="http://www.w3.org/2000/svg">
<mask id="mask0_7_2909" style="mask-type:alpha" maskUnits="userSpaceOnUse" x="0" y="0" width="30" height="30">
<rect width="30" height="30" fill="#F1C049"/>
</mask>
<g mask="url(#mask0_7_2909)">
<path d="M21.4371 12.9258C24.5094 12.9258 27 10.4352 27 7.36291C27 4.2906 24.5094 1.8 21.4371 1.8C18.3647 1.8 15.8741 4.2906 15.8741 7.36291C15.8741 10.4352 18.3647 12.9258 21.4371 12.9258Z" fill="url(#paint0_linear_7_2909)"/>
<path d="M26.2053 15.9457C26.2053 17.5701 25.5473 19.0419 24.4824 20.1036C23.4207 21.1685 21.9489 21.8265 20.3245 21.8265H11.9007C11.6877 21.8265 11.4747 21.8201 11.2649 21.8011C6.64609 21.4768 3 17.6273 3 12.9258C3 8.01139 6.98622 4.02517 11.9007 4.02517C15.8138 4.02517 19.1388 6.55232 20.3277 10.0649C23.5764 10.0681 26.2053 12.697 26.2053 15.9457Z" fill="url(#paint1_linear_7_2909)"/>
<path d="M8.18463 25.0371C8.46119 25.6601 8.0988 26.4199 7.4249 26.5121C7.37722 26.5184 7.32635 26.5216 7.27549 26.5216C7.22463 26.5216 7.17695 26.5184 7.12927 26.5121C6.45536 26.4199 6.09297 25.6601 6.36953 25.0371L6.54437 24.6397L7.27549 22.9868L8.00662 24.6366L8.18463 25.0371Z" fill="url(#paint2_linear_7_2909)"/>
<path d="M15.5118 26.8045C15.7883 27.4275 15.426 28.1873 14.752 28.2795C14.7044 28.2858 14.6535 28.289 14.6026 28.289C14.5518 28.289 14.5041 28.2858 14.4564 28.2795C13.7825 28.1873 13.4201 27.4275 13.6967 26.8045L13.8715 26.4072L14.6026 24.7542L15.3338 26.404L15.5118 26.8045Z" fill="url(#paint3_linear_7_2909)"/>
<path d="M22.8358 25.0371C23.1123 25.6601 22.7499 26.4199 22.076 26.5121C22.0283 26.5184 21.9775 26.5216 21.9266 26.5216C21.8758 26.5216 21.8281 26.5184 21.7804 26.5121C21.1065 26.4199 20.7441 25.6601 21.0207 25.0371L21.1955 24.6397L21.9266 22.9868L22.6577 24.6366L22.8358 25.0371Z" fill="url(#paint4_linear_7_2909)"/>
</g>
<defs>
<linearGradient id="paint0_linear_7_2909" x1="16.8678" y1="5.10354" x2="26.6467" y2="9.93565" gradientUnits="userSpaceOnUse">
<stop stop-color="#F6D651"/>
<stop offset="0.1382" stop-color="#F5D04F"/>
<stop offset="0.3576" stop-color="#F1C049"/>
<stop offset="0.3611" stop-color="#F1BF49"/>
<stop offset="0.4848" stop-color="#F3BC4A"/>
<stop offset="0.6477" stop-color="#F6B14B"/>
<stop offset="1" stop-color="#F5A74E"/>
</linearGradient>
<linearGradient id="paint1_linear_7_2909" x1="4.81065" y1="9.42017" x2="25.6147" y2="19.7002" gradientUnits="userSpaceOnUse">
<stop stop-color="white"/>
<stop offset="0.3611" stop-color="white"/>
<stop offset="0.4727" stop-color="#FBFBFB"/>
<stop offset="0.6249" stop-color="#ECEBEB"/>
<stop offset="0.6477" stop-color="#E9E8E8"/>
<stop offset="1" stop-color="#8B8B8B"/>
</linearGradient>
<linearGradient id="paint2_linear_7_2909" x1="7.26348" y1="24.4459" x2="7.29323" y2="26.5616" gradientUnits="userSpaceOnUse">
<stop stop-color="#35939E"/>
<stop offset="0.1221" stop-color="#3798A3"/>
<stop offset="0.3159" stop-color="#3AA6B0"/>
<stop offset="0.3611" stop-color="#3BAAB4"/>
<stop offset="0.4971" stop-color="#46AEBA"/>
<stop offset="0.6477" stop-color="#5AB8C6"/>
<stop offset="1" stop-color="#66BDCD"/>
</linearGradient>
<linearGradient id="paint3_linear_7_2909" x1="14.5889" y1="26.2133" x2="14.6187" y2="28.329" gradientUnits="userSpaceOnUse">
<stop stop-color="#35939E"/>
<stop offset="0.1221" stop-color="#3798A3"/>
<stop offset="0.3159" stop-color="#3AA6B0"/>
<stop offset="0.3611" stop-color="#3BAAB4"/>
<stop offset="0.4971" stop-color="#46AEBA"/>
<stop offset="0.6477" stop-color="#5AB8C6"/>
<stop offset="1" stop-color="#66BDCD"/>
</linearGradient>
<linearGradient id="paint4_linear_7_2909" x1="21.9143" y1="24.4459" x2="21.9441" y2="26.5616" gradientUnits="userSpaceOnUse">
<stop stop-color="#35939E"/>
<stop offset="0.1221" stop-color="#3798A3"/>
<stop offset="0.3159" stop-color="#3AA6B0"/>
<stop offset="0.3611" stop-color="#3BAAB4"/>
<stop offset="0.4971" stop-color="#46AEBA"/>
<stop offset="0.6477" stop-color="#5AB8C6"/>
<stop offset="1" stop-color="#66BDCD"/>
</linearGradient>
</defs>
</svg>
