<svg width="30" height="30" viewBox="0 0 30 30" fill="none" xmlns="http://www.w3.org/2000/svg">
<mask id="mask0_7_2916" style="mask-type:alpha" maskUnits="userSpaceOnUse" x="0" y="0" width="30" height="30">
<rect width="30" height="30" fill="#F1C049"/>
</mask>
<g mask="url(#mask0_7_2916)">
<path d="M26.8228 17.6066C25.5011 18.2173 24.2007 18.4543 22.9185 18.4543C20.5699 18.4543 18.2912 17.6522 16.058 16.8653C15.2043 16.5675 14.3232 16.2576 13.4572 15.9993C13.2962 15.9507 13.2051 15.7806 13.2537 15.6196C13.2993 15.4585 13.4694 15.3674 13.6304 15.416C14.5115 15.6773 15.4018 15.9902 16.2586 16.2941C19.7496 17.5215 23.0431 18.6822 26.5675 17.0536C26.7225 16.9838 26.9018 17.0506 26.9716 17.2025C27.0415 17.3544 26.9747 17.5337 26.8228 17.6066Z" fill="url(#paint0_linear_7_2916)"/>
<path d="M26.6252 25.968C25.2519 26.5726 23.83 26.7884 22.4931 26.7884C19.2421 26.7884 16.5228 25.5062 16.3618 25.4302C14.4902 24.5522 12.6915 24.1542 11.063 24.0417C11.0751 24.0812 11.0812 24.1238 11.0873 24.1663C11.145 24.6737 10.7804 25.1355 10.27 25.1933C9.7626 25.254 9.30078 24.8864 9.24305 24.376C9.22786 24.2575 9.23697 24.139 9.27039 24.0296C5.82799 24.2149 3.49457 25.5366 3.45811 25.5579C3.31227 25.6429 3.12693 25.5943 3.04186 25.4485C2.95679 25.3057 3.00541 25.1173 3.15124 25.0353C3.19074 25.011 5.90395 23.4675 9.82944 23.4067C10.0512 23.4037 10.2791 23.4037 10.51 23.4098C11.6767 23.4432 12.9407 23.6133 14.2623 23.9962C14.2836 23.662 14.5631 23.3946 14.9034 23.3946C15.2589 23.3946 15.5475 23.6832 15.5475 24.0387C15.5475 24.1663 15.508 24.2878 15.4442 24.3881C15.8331 24.5309 16.2281 24.698 16.6231 24.8834C16.6778 24.9077 21.9219 27.3748 26.3821 25.412C26.5341 25.3452 26.7133 25.4151 26.7832 25.57C26.85 25.7219 26.7802 25.9012 26.6252 25.968Z" fill="url(#paint1_linear_7_2916)"/>
<path d="M26.8197 20.5659C25.4464 21.1705 24.0214 21.3863 22.6876 21.3863C19.4336 21.3863 16.7143 20.1041 16.5563 20.0281C9.61985 16.7711 3.7073 20.1223 3.64958 20.1558C3.50374 20.2408 3.3184 20.1922 3.23333 20.0464C3.14826 19.9005 3.19991 19.7152 3.34271 19.6301C3.40652 19.5967 9.58036 16.0844 16.8146 19.4782C16.8419 19.4904 17.9144 19.9947 19.4944 20.3684C19.4913 20.3502 19.4913 20.332 19.4913 20.3137C19.4913 19.9643 19.7739 19.6848 20.1202 19.6848C20.4666 19.6848 20.7492 19.9643 20.7492 20.3137C20.7492 20.417 20.7249 20.5173 20.6763 20.6024C22.4446 20.8789 24.5866 20.8849 26.5736 20.0099C26.7255 19.9431 26.9078 20.013 26.9747 20.1649C27.0415 20.3198 26.9716 20.4991 26.8197 20.5659Z" fill="url(#paint2_linear_7_2916)"/>
<path d="M26.8197 23.349C25.4464 23.9536 24.0214 24.1694 22.6876 24.1694C19.4336 24.1694 16.7143 22.8872 16.5563 22.8112C12.6794 20.9913 9.12765 21.2313 6.7365 21.8056C6.7365 21.8056 6.73346 21.8056 6.73043 21.8056C6.48432 21.8663 6.25037 21.9301 6.02858 21.9939C4.555 22.4254 3.67084 22.9267 3.64958 22.9388C3.50374 23.0239 3.3184 22.9753 3.23333 22.8295C3.14826 22.6836 3.19991 22.4983 3.34271 22.4132C3.36398 22.4011 4.10836 21.9787 5.36926 21.5655C5.28115 21.4258 5.2295 21.2556 5.2295 21.0764C5.2295 20.5629 5.64575 20.1466 6.15922 20.1466C6.6727 20.1466 7.08894 20.5629 7.08894 21.0764C7.08894 21.0885 7.08894 21.1007 7.0859 21.1128C9.56516 20.5993 13.0471 20.493 16.8146 22.2613C16.8571 22.2795 19.385 23.4675 22.4172 23.5465C22.3473 23.4553 22.3048 23.346 22.2896 23.2275C22.2471 22.8568 22.5114 22.5226 22.8821 22.4801C23.2497 22.4375 23.5839 22.7018 23.6265 23.0725C23.6447 23.2366 23.6021 23.3946 23.514 23.5222C24.5258 23.4493 25.571 23.2336 26.5736 22.793C26.7286 22.7262 26.9078 22.796 26.9747 22.9479C27.0415 23.1029 26.9716 23.2822 26.8197 23.349Z" fill="url(#paint3_linear_7_2916)"/>
<path d="M23.2496 13.6811C23.2496 15.0544 22.6936 16.3001 21.7912 17.1995C20.8919 18.1018 19.6492 18.6579 18.2729 18.6579H11.145C10.9658 18.6579 10.7835 18.6518 10.6072 18.6366C6.69997 18.3631 3.61609 15.1061 3.61609 11.1289C3.61609 6.97252 6.98861 3.6 11.145 3.6C14.4568 3.6 17.2702 5.73897 18.2759 8.71044C21.0256 8.7074 23.2496 10.9314 23.2496 13.6811Z" fill="url(#paint4_linear_7_2916)"/>
</g>
<defs>
<linearGradient id="paint0_linear_7_2916" x1="13.24" y1="16.9276" x2="26.9987" y2="16.9276" gradientUnits="userSpaceOnUse">
<stop stop-color="#EED6C1"/>
<stop offset="0.2762" stop-color="#E8CFB8"/>
<stop offset="0.3611" stop-color="#E6CCB4"/>
<stop offset="0.466" stop-color="#E1C6AE"/>
<stop offset="0.609" stop-color="#D3B69B"/>
<stop offset="0.6477" stop-color="#CFB195"/>
<stop offset="1" stop-color="#C4A384"/>
</linearGradient>
<linearGradient id="paint1_linear_7_2916" x1="2.99936" y1="25.0905" x2="26.8079" y2="25.0905" gradientUnits="userSpaceOnUse">
<stop stop-color="#EED6C1"/>
<stop offset="0.2762" stop-color="#E8CFB8"/>
<stop offset="0.3611" stop-color="#E6CCB4"/>
<stop offset="0.466" stop-color="#E1C6AE"/>
<stop offset="0.609" stop-color="#D3B69B"/>
<stop offset="0.6477" stop-color="#CFB195"/>
<stop offset="1" stop-color="#C4A384"/>
</linearGradient>
<linearGradient id="paint2_linear_7_2916" x1="3.19149" y1="19.6927" x2="26.9994" y2="19.6927" gradientUnits="userSpaceOnUse">
<stop stop-color="#EED6C1"/>
<stop offset="0.2762" stop-color="#E8CFB8"/>
<stop offset="0.3611" stop-color="#E6CCB4"/>
<stop offset="0.466" stop-color="#E1C6AE"/>
<stop offset="0.609" stop-color="#D3B69B"/>
<stop offset="0.6477" stop-color="#CFB195"/>
<stop offset="1" stop-color="#C4A384"/>
</linearGradient>
<linearGradient id="paint3_linear_7_2916" x1="3.19149" y1="22.157" x2="26.9994" y2="22.157" gradientUnits="userSpaceOnUse">
<stop stop-color="#EED6C1"/>
<stop offset="0.2762" stop-color="#E8CFB8"/>
<stop offset="0.3611" stop-color="#E6CCB4"/>
<stop offset="0.466" stop-color="#E1C6AE"/>
<stop offset="0.609" stop-color="#D3B69B"/>
<stop offset="0.6477" stop-color="#CFB195"/>
<stop offset="1" stop-color="#C4A384"/>
</linearGradient>
<linearGradient id="paint4_linear_7_2916" x1="5.14846" y1="8.16135" x2="22.7497" y2="16.8587" gradientUnits="userSpaceOnUse">
<stop stop-color="#EED6C1"/>
<stop offset="0.2762" stop-color="#E8CFB8"/>
<stop offset="0.3611" stop-color="#E6CCB4"/>
<stop offset="0.466" stop-color="#E1C6AE"/>
<stop offset="0.609" stop-color="#D3B69B"/>
<stop offset="0.6477" stop-color="#CFB195"/>
<stop offset="1" stop-color="#C4A384"/>
</linearGradient>
</defs>
</svg>
