<svg width="30" height="30" viewBox="0 0 30 30" fill="none" xmlns="http://www.w3.org/2000/svg">
<mask id="mask0_7_2912" style="mask-type:alpha" maskUnits="userSpaceOnUse" x="0" y="0" width="30" height="30">
<rect width="30" height="30" fill="#F1C049"/>
</mask>
<g mask="url(#mask0_7_2912)">
<path d="M27 14.1288C27 15.8088 26.3195 17.331 25.2181 18.429C24.12 19.5304 22.5978 20.211 20.9178 20.211H12.2055C11.9852 20.211 11.7649 20.2044 11.5479 20.1847C6.77096 19.8493 3 15.8679 3 11.0055C3 5.92274 7.12274 1.8 12.2055 1.8C16.2526 1.8 19.6915 4.4137 20.9211 8.04658C24.2811 8.04987 27 10.7688 27 14.1288Z" fill="url(#paint0_linear_7_2912)"/>
<path d="M8.36217 23.5315C8.6482 24.1759 8.27341 24.9616 7.57642 25.057C7.5271 25.0636 7.4745 25.0669 7.4219 25.0669C7.3693 25.0669 7.31998 25.0636 7.27067 25.057C6.57368 24.9616 6.19888 24.1759 6.48491 23.5315L6.66574 23.1205L7.4219 21.411L8.17806 23.1173L8.36217 23.5315Z" fill="url(#paint1_linear_7_2912)"/>
<path d="M15.937 23.5315C16.223 24.1759 15.8482 24.9617 15.1512 25.057C15.1019 25.0636 15.0493 25.0669 14.9967 25.0669C14.9441 25.0669 14.8948 25.0636 14.8455 25.057C14.1485 24.9617 13.7737 24.1759 14.0597 23.5315L14.2406 23.1206L14.9967 21.411L15.7529 23.1173L15.937 23.5315Z" fill="url(#paint2_linear_7_2912)"/>
<path d="M23.515 23.5315C23.801 24.1759 23.4262 24.9617 22.7293 25.057C22.6799 25.0636 22.6273 25.0669 22.5747 25.0669C22.5221 25.0669 22.4728 25.0636 22.4235 25.057C21.7265 24.9617 21.3517 24.1759 21.6377 23.5315L21.8186 23.1206L22.5747 21.411L23.3309 23.1173L23.515 23.5315Z" fill="url(#paint3_linear_7_2912)"/>
<path d="M11.2126 28.6734C11.8118 28.6734 12.2975 28.1877 12.2975 27.5885C12.2975 26.9893 11.8118 26.5036 11.2126 26.5036C10.6134 26.5036 10.1277 26.9893 10.1277 27.5885C10.1277 28.1877 10.6134 28.6734 11.2126 28.6734Z" fill="#66BDCD"/>
<path d="M18.7873 28.6734C19.3865 28.6734 19.8723 28.1877 19.8723 27.5885C19.8723 26.9893 19.3865 26.5036 18.7873 26.5036C18.1881 26.5036 17.7024 26.9893 17.7024 27.5885C17.7024 28.1877 18.1881 28.6734 18.7873 28.6734Z" fill="#66BDCD"/>
</g>
<defs>
<linearGradient id="paint0_linear_7_2912" x1="4.87141" y1="7.38174" x2="26.3879" y2="18.0137" gradientUnits="userSpaceOnUse">
<stop stop-color="white"/>
<stop offset="0.3611" stop-color="white"/>
<stop offset="0.4727" stop-color="#FBFBFB"/>
<stop offset="0.6249" stop-color="#ECEBEB"/>
<stop offset="0.6477" stop-color="#E9E8E8"/>
<stop offset="1" stop-color="#8B8B8B"/>
</linearGradient>
<linearGradient id="paint1_linear_7_2912" x1="7.40822" y1="22.922" x2="7.43899" y2="25.1102" gradientUnits="userSpaceOnUse">
<stop stop-color="#35939E"/>
<stop offset="0.1221" stop-color="#3798A3"/>
<stop offset="0.3159" stop-color="#3AA6B0"/>
<stop offset="0.3611" stop-color="#3BAAB4"/>
<stop offset="0.4971" stop-color="#46AEBA"/>
<stop offset="0.6477" stop-color="#5AB8C6"/>
<stop offset="1" stop-color="#66BDCD"/>
</linearGradient>
<linearGradient id="paint2_linear_7_2912" x1="14.9846" y1="22.922" x2="15.0153" y2="25.1102" gradientUnits="userSpaceOnUse">
<stop stop-color="#35939E"/>
<stop offset="0.1221" stop-color="#3798A3"/>
<stop offset="0.3159" stop-color="#3AA6B0"/>
<stop offset="0.3611" stop-color="#3BAAB4"/>
<stop offset="0.4971" stop-color="#46AEBA"/>
<stop offset="0.6477" stop-color="#5AB8C6"/>
<stop offset="1" stop-color="#66BDCD"/>
</linearGradient>
<linearGradient id="paint3_linear_7_2912" x1="22.5608" y1="22.922" x2="22.5916" y2="25.1102" gradientUnits="userSpaceOnUse">
<stop stop-color="#35939E"/>
<stop offset="0.1221" stop-color="#3798A3"/>
<stop offset="0.3159" stop-color="#3AA6B0"/>
<stop offset="0.3611" stop-color="#3BAAB4"/>
<stop offset="0.4971" stop-color="#46AEBA"/>
<stop offset="0.6477" stop-color="#5AB8C6"/>
<stop offset="1" stop-color="#66BDCD"/>
</linearGradient>
</defs>
</svg>
