<svg width="30" height="30" viewBox="0 0 30 30" fill="none" xmlns="http://www.w3.org/2000/svg">
<mask id="mask0_7_2913" style="mask-type:alpha" maskUnits="userSpaceOnUse" x="0" y="0" width="30" height="30">
<rect width="30" height="30" fill="#F1C049"/>
</mask>
<g mask="url(#mask0_7_2913)">
<path d="M16.1063 27.7019C16.0833 27.7808 16.0537 27.8564 16.0175 27.9288C15.932 28.0931 15.8038 28.2312 15.6493 28.3299C15.429 28.4679 15.1561 28.5173 14.903 28.4647C14.6466 28.412 14.4098 28.251 14.2685 28.0241C14.1534 27.84 14.1008 27.6164 14.1107 27.3962C14.1205 27.1627 14.206 26.972 14.2816 26.7584C14.3605 26.5381 14.4329 26.3145 14.5085 26.0942C14.6498 25.6899 14.7879 25.2855 14.9293 24.8811C15.1068 24.3715 15.2811 23.8619 15.4586 23.3523C15.646 22.8131 15.8301 22.274 16.0175 21.7348C16.1885 21.2416 16.3594 20.7485 16.5304 20.2553C16.6586 19.8838 16.7868 19.5156 16.915 19.1441C16.9742 18.9731 17.0334 18.7989 17.0926 18.6279C17.0926 18.6247 17.0959 18.6214 17.0959 18.6148C17.0794 18.7529 17.0663 18.8942 17.0498 19.0323C17.0104 19.394 16.9709 19.7589 16.9315 20.1205C16.8756 20.6268 16.823 21.1332 16.7671 21.6395C16.7046 22.2082 16.6455 22.777 16.583 23.3425C16.5238 23.8915 16.4646 24.4405 16.4055 24.9896C16.3561 25.4367 16.3101 25.8871 16.2608 26.3342C16.2312 26.6203 16.195 26.9063 16.1753 27.1956C16.172 27.3666 16.1523 27.5375 16.1063 27.7019Z" fill="url(#paint0_linear_7_2913)"/>
<path d="M23.9819 25.9611C23.9622 26.04 23.9359 26.1189 23.8997 26.1912C23.8208 26.3589 23.6959 26.5003 23.5447 26.6022C23.3277 26.7468 23.0581 26.8027 22.805 26.76C22.5452 26.714 22.3052 26.5627 22.1573 26.3425C22.0356 26.1616 21.9765 25.9381 21.9797 25.7178C21.9797 25.4844 22.0619 25.2904 22.131 25.0767C22.2 24.8531 22.2691 24.6296 22.3381 24.406C22.4663 23.9983 22.5913 23.5874 22.7195 23.1797C22.8806 22.6636 23.0384 22.1507 23.1995 21.6345C23.3671 21.0888 23.5381 20.543 23.7058 20.0005C23.8603 19.5008 24.0148 19.0044 24.1693 18.5047C24.2844 18.1299 24.4028 17.7551 24.5178 17.3803C24.5704 17.206 24.6263 17.0318 24.6789 16.8575C24.6789 16.8542 24.6822 16.8477 24.6822 16.8444C24.6723 16.9825 24.6625 17.1238 24.6526 17.2619C24.6263 17.6268 24.6 17.9918 24.5704 18.3534C24.5343 18.8597 24.4948 19.3693 24.4587 19.8756C24.4159 20.4444 24.3732 21.0164 24.3304 21.5852C24.291 22.1342 24.2482 22.6866 24.2088 23.2356C24.1759 23.686 24.143 24.1331 24.1102 24.5836C24.0904 24.8696 24.0641 25.1589 24.0543 25.4482C24.0378 25.6257 24.0247 25.8 23.9819 25.9611Z" fill="url(#paint1_linear_7_2913)"/>
<path d="M12.6 21.2367C12.577 21.3156 12.5507 21.3912 12.5179 21.4668C12.4422 21.6312 12.3337 21.7759 12.2055 21.8811C12.0247 22.029 11.8044 22.0882 11.6072 22.0488C11.4033 22.006 11.2258 21.8614 11.1239 21.6444C11.0417 21.4668 11.0121 21.2466 11.0285 21.0296C11.045 20.7994 11.1239 20.6055 11.1929 20.3918C11.2652 20.1715 11.3343 19.9479 11.4033 19.7244C11.5315 19.3167 11.6631 18.9123 11.7913 18.5046C11.9557 17.9918 12.1168 17.4789 12.2811 16.966C12.4554 16.4236 12.6263 15.8811 12.8006 15.3386C12.9584 14.8422 13.1162 14.3457 13.274 13.8526C13.3924 13.4811 13.5107 13.1063 13.6291 12.7348C13.685 12.5605 13.7409 12.3896 13.7935 12.2153C13.7935 12.212 13.7968 12.2055 13.7968 12.2022C13.777 12.3403 13.7606 12.4783 13.7409 12.6164C13.6916 12.9781 13.6455 13.3397 13.5962 13.7014C13.5305 14.2044 13.4647 14.7074 13.3957 15.2104C13.32 15.7759 13.2477 16.3414 13.1721 16.9068C13.0998 17.4526 13.0274 17.9983 12.9551 18.5441C12.8959 18.9912 12.8368 19.4351 12.7776 19.8822C12.7414 20.1682 12.6987 20.4509 12.6724 20.7403C12.6691 20.9014 12.6461 21.0723 12.6 21.2367Z" fill="url(#paint2_linear_7_2913)"/>
<path d="M7.30359 26.28C7.28058 26.3392 7.2477 26.3918 7.20825 26.4444C7.11948 26.5595 6.98797 26.6482 6.83345 26.6975C6.61318 26.7699 6.34688 26.7666 6.1003 26.6877C5.85044 26.6055 5.62359 26.4477 5.49208 26.2504C5.38359 26.0893 5.34085 25.9085 5.35729 25.7375C5.37373 25.56 5.46249 25.4252 5.54469 25.2707C5.62688 25.1129 5.70578 24.9518 5.78797 24.7907C5.93592 24.4981 6.08715 24.2055 6.2351 23.9129C6.42249 23.5447 6.60989 23.1764 6.79729 22.8082C6.99455 22.417 7.1951 22.029 7.39236 21.6378C7.57318 21.2827 7.754 20.9244 7.93811 20.5693C8.07291 20.303 8.21099 20.0334 8.34578 19.7671C8.40825 19.6422 8.474 19.5173 8.53646 19.3923C8.53646 19.389 8.53975 19.3857 8.53975 19.3825C8.52003 19.4877 8.50359 19.5929 8.48386 19.6981C8.43455 19.9742 8.38523 20.2504 8.33592 20.5266C8.26688 20.9112 8.20112 21.2959 8.13208 21.6806C8.05647 22.1112 7.97756 22.5419 7.90195 22.9726C7.82962 23.3901 7.754 23.8044 7.68167 24.2219C7.62249 24.5605 7.56003 24.9025 7.50085 25.2411C7.4614 25.4581 7.41866 25.6751 7.39236 25.8953C7.37921 26.0334 7.35619 26.1616 7.30359 26.28Z" fill="url(#paint3_linear_7_2913)"/>
<path d="M20.3654 23.3014C20.3424 23.3605 20.3161 23.4164 20.28 23.469C20.1978 23.5874 20.0728 23.6827 19.9216 23.7419C19.7046 23.8274 19.4383 23.8372 19.1885 23.7715C18.9353 23.7025 18.6986 23.5545 18.5572 23.3671C18.4422 23.2126 18.3896 23.0318 18.3928 22.8641C18.3994 22.6833 18.4816 22.5452 18.5539 22.3874C18.6296 22.223 18.6986 22.0586 18.7709 21.8975C18.9057 21.5983 19.0372 21.2992 19.172 21C19.3397 20.6219 19.5074 20.2438 19.675 19.8657C19.8526 19.4646 20.0301 19.0668 20.2076 18.6657C20.3687 18.3008 20.5331 17.9359 20.6942 17.5709C20.8159 17.2948 20.9375 17.0219 21.0591 16.7457C21.115 16.6175 21.1742 16.4893 21.2301 16.3644C21.2301 16.3611 21.2334 16.3578 21.2334 16.3545C21.2202 16.4597 21.2071 16.5682 21.1939 16.6734C21.1611 16.9529 21.1249 17.229 21.092 17.5085C21.0427 17.8964 20.9967 18.2844 20.9474 18.669C20.8948 19.103 20.8389 19.537 20.7863 19.9742C20.7337 20.3951 20.6811 20.8126 20.6317 21.2334C20.589 21.5753 20.5463 21.9205 20.5035 22.2625C20.4772 22.4827 20.4444 22.6997 20.4312 22.9233C20.4246 23.0482 20.4082 23.1797 20.3654 23.3014Z" fill="url(#paint4_linear_7_2913)"/>
<path d="M4.48269 21.9304C4.33803 21.8844 4.25584 21.7299 4.30186 21.5819L5.99173 16.2756C6.03776 16.131 6.19228 16.0488 6.34022 16.0948C6.48488 16.1408 6.56707 16.2953 6.52104 16.4433L4.83118 21.7496C4.78515 21.8942 4.62734 21.9764 4.48269 21.9304Z" fill="url(#paint5_linear_7_2913)"/>
<path d="M27 12.9288C27 14.6088 26.3195 16.131 25.2181 17.229C24.12 18.3304 22.5978 19.011 20.9178 19.011H12.2055C11.9852 19.011 11.7649 19.0044 11.5479 18.9846C6.77096 18.6493 3 14.6679 3 9.80548C3 4.72274 7.12274 0.599998 12.2055 0.599998C16.2526 0.599998 19.6915 3.2137 20.9211 6.84657C24.2811 6.84986 27 9.56876 27 12.9288Z" fill="url(#paint6_linear_7_2913)"/>
</g>
<defs>
<linearGradient id="paint0_linear_7_2913" x1="16.9681" y1="20.6941" x2="14.2039" y2="30.2584" gradientUnits="userSpaceOnUse">
<stop stop-color="#1E6067"/>
<stop offset="0.1058" stop-color="#22666D"/>
<stop offset="0.2739" stop-color="#2D7780"/>
<stop offset="0.3611" stop-color="#33818C"/>
<stop offset="0.4331" stop-color="#33858F"/>
<stop offset="0.5314" stop-color="#328F99"/>
<stop offset="0.6445" stop-color="#309FAA"/>
<stop offset="0.6477" stop-color="#30A0AB"/>
<stop offset="1" stop-color="#45B2BC"/>
</linearGradient>
<linearGradient id="paint1_linear_7_2913" x1="25.1558" y1="17.1259" x2="22.7043" y2="26.776" gradientUnits="userSpaceOnUse">
<stop stop-color="#1E6067"/>
<stop offset="0.1058" stop-color="#22666D"/>
<stop offset="0.2739" stop-color="#2D7780"/>
<stop offset="0.3611" stop-color="#33818C"/>
<stop offset="0.4331" stop-color="#33858F"/>
<stop offset="0.5314" stop-color="#328F99"/>
<stop offset="0.6445" stop-color="#309FAA"/>
<stop offset="0.6477" stop-color="#30A0AB"/>
<stop offset="1" stop-color="#45B2BC"/>
</linearGradient>
<linearGradient id="paint2_linear_7_2913" x1="14.1682" y1="12.4529" x2="11.2462" y2="21.9579" gradientUnits="userSpaceOnUse">
<stop stop-color="#1E6067"/>
<stop offset="0.1058" stop-color="#22666D"/>
<stop offset="0.2739" stop-color="#2D7780"/>
<stop offset="0.3611" stop-color="#33818C"/>
<stop offset="0.4331" stop-color="#33858F"/>
<stop offset="0.5314" stop-color="#328F99"/>
<stop offset="0.6445" stop-color="#309FAA"/>
<stop offset="0.6477" stop-color="#30A0AB"/>
<stop offset="1" stop-color="#45B2BC"/>
</linearGradient>
<linearGradient id="paint3_linear_7_2913" x1="8.99749" y1="19.6825" x2="6.24641" y2="26.7702" gradientUnits="userSpaceOnUse">
<stop stop-color="#1E6067"/>
<stop offset="0.1058" stop-color="#22666D"/>
<stop offset="0.2739" stop-color="#2D7780"/>
<stop offset="0.3611" stop-color="#33818C"/>
<stop offset="0.4331" stop-color="#33858F"/>
<stop offset="0.5314" stop-color="#328F99"/>
<stop offset="0.6445" stop-color="#309FAA"/>
<stop offset="0.6477" stop-color="#30A0AB"/>
<stop offset="1" stop-color="#45B2BC"/>
</linearGradient>
<linearGradient id="paint4_linear_7_2913" x1="21.7153" y1="16.6152" x2="19.3393" y2="23.8367" gradientUnits="userSpaceOnUse">
<stop stop-color="#1E6067"/>
<stop offset="0.1058" stop-color="#22666D"/>
<stop offset="0.2739" stop-color="#2D7780"/>
<stop offset="0.3611" stop-color="#33818C"/>
<stop offset="0.4331" stop-color="#33858F"/>
<stop offset="0.5314" stop-color="#328F99"/>
<stop offset="0.6445" stop-color="#309FAA"/>
<stop offset="0.6477" stop-color="#30A0AB"/>
<stop offset="1" stop-color="#45B2BC"/>
</linearGradient>
<linearGradient id="paint5_linear_7_2913" x1="5.27324" y1="19.3811" x2="4.48538" y2="21.4814" gradientUnits="userSpaceOnUse">
<stop stop-color="#1E6067"/>
<stop offset="0.1058" stop-color="#22666D"/>
<stop offset="0.2739" stop-color="#2D7780"/>
<stop offset="0.3611" stop-color="#33818C"/>
<stop offset="0.4331" stop-color="#33858F"/>
<stop offset="0.5314" stop-color="#328F99"/>
<stop offset="0.6445" stop-color="#309FAA"/>
<stop offset="0.6477" stop-color="#30A0AB"/>
<stop offset="1" stop-color="#45B2BC"/>
</linearGradient>
<linearGradient id="paint6_linear_7_2913" x1="4.87341" y1="6.18227" x2="26.3899" y2="16.8143" gradientUnits="userSpaceOnUse">
<stop stop-color="white"/>
<stop offset="0.3611" stop-color="white"/>
<stop offset="0.4727" stop-color="#FBFBFB"/>
<stop offset="0.6249" stop-color="#ECEBEB"/>
<stop offset="0.6477" stop-color="#E9E8E8"/>
<stop offset="1" stop-color="#8B8B8B"/>
</linearGradient>
</defs>
</svg>
