<svg width="30" height="30" viewBox="0 0 30 30" fill="none" xmlns="http://www.w3.org/2000/svg">
<mask id="mask0_7_2910" style="mask-type:alpha" maskUnits="userSpaceOnUse" x="0" y="0" width="30" height="30">
<rect width="30" height="30" fill="#F1C049"/>
</mask>
<g mask="url(#mask0_7_2910)">
<path d="M21.4371 15.9258C24.5094 15.9258 27 13.4352 27 10.3629C27 7.2906 24.5094 4.8 21.4371 4.8C18.3647 4.8 15.8741 7.2906 15.8741 10.3629C15.8741 13.4352 18.3647 15.9258 21.4371 15.9258Z" fill="url(#paint0_linear_7_2910)"/>
<path d="M26.2053 18.9457C26.2053 20.5701 25.5473 22.0419 24.4824 23.1036C23.4207 24.1685 21.9489 24.8265 20.3245 24.8265H11.9007C11.6877 24.8265 11.4747 24.8201 11.2649 24.8011C6.64609 24.4768 3 20.6273 3 15.9258C3 11.0114 6.98622 7.02517 11.9007 7.02517C15.8138 7.02517 19.1388 9.55232 20.3277 13.0649C23.5764 13.0681 26.2053 15.697 26.2053 18.9457Z" fill="url(#paint1_linear_7_2910)"/>
</g>
<defs>
<linearGradient id="paint0_linear_7_2910" x1="16.8678" y1="8.10396" x2="26.6468" y2="12.9361" gradientUnits="userSpaceOnUse">
<stop stop-color="#F6D651"/>
<stop offset="0.1382" stop-color="#F5D04F"/>
<stop offset="0.3576" stop-color="#F1C049"/>
<stop offset="0.3611" stop-color="#F1BF49"/>
<stop offset="0.4848" stop-color="#F3BC4A"/>
<stop offset="0.6477" stop-color="#F6B14B"/>
<stop offset="1" stop-color="#F5A74E"/>
</linearGradient>
<linearGradient id="paint1_linear_7_2910" x1="4.81071" y1="12.4206" x2="25.6148" y2="22.7005" gradientUnits="userSpaceOnUse">
<stop stop-color="white"/>
<stop offset="0.3611" stop-color="white"/>
<stop offset="0.4727" stop-color="#FBFBFB"/>
<stop offset="0.6249" stop-color="#ECEBEB"/>
<stop offset="0.6477" stop-color="#E9E8E8"/>
<stop offset="1" stop-color="#8B8B8B"/>
</linearGradient>
</defs>
</svg>
