<svg width="30" height="30" viewBox="0 0 30 30" fill="none" xmlns="http://www.w3.org/2000/svg">
<path d="M19.7233 17.8365H18.7296L18.3774 17.4969C19.6101 16.0629 20.3522 14.2013 20.3522 12.1761C20.3522 7.66038 16.6918 4 12.1761 4C7.66038 4 4 7.66038 4 12.1761C4 16.6918 7.66038 20.3522 12.1761 20.3522C14.2013 20.3522 16.0629 19.6101 17.4969 18.3774L17.8365 18.7296V19.7233L24.1258 26L26 24.1258L19.7233 17.8365ZM12.1761 17.8365C9.04402 17.8365 6.51572 15.3082 6.51572 12.1761C6.51572 9.04402 9.04402 6.51572 12.1761 6.51572C15.3082 6.51572 17.8365 9.04402 17.8365 12.1761C17.8365 15.3082 15.3082 17.8365 12.1761 17.8365Z" fill="white"/>
</svg>
