<svg width="30" height="30" viewBox="0 0 30 30" fill="none" xmlns="http://www.w3.org/2000/svg">
<path d="M15.4805 5.17248V4.2H14.5195V5.17248C8.26846 5.41897 3.24649 10.441 3 16.6925H3.80432C4.35206 16.1053 5.12467 15.7315 5.99098 15.7315C7.07687 15.7315 8.02487 16.3096 8.55243 17.173H9.43555C9.96312 16.3096 10.9111 15.7315 11.997 15.7315C13.056 15.7315 13.9847 16.2812 14.5195 17.1086V24.3802C14.5195 25.442 15.3801 26.3021 16.4414 26.3021C17.5028 26.3021 18.3634 25.442 18.3634 24.3802H17.4024C17.4024 24.9102 16.9714 25.3411 16.4414 25.3411C15.9115 25.3411 15.4805 24.9102 15.4805 24.3802V17.1086C16.0152 16.2807 16.944 15.7315 18.003 15.7315C19.0889 15.7315 20.0369 16.3096 20.5645 17.173H21.4476C21.9751 16.3096 22.9231 15.7315 24.009 15.7315C24.8753 15.7315 25.6479 16.1053 26.1957 16.6925H27C26.7535 10.441 21.7315 5.41897 15.4805 5.17248ZM24.009 14.7706C22.8097 14.7706 21.7334 15.3058 21.006 16.1495C20.2786 15.3058 19.2023 14.7706 18.003 14.7706C16.8037 14.7706 15.7274 15.3058 15 16.1495C14.2725 15.3058 13.1963 14.7706 11.997 14.7706C10.7977 14.7706 9.72143 15.3058 8.99398 16.1495C8.26654 15.3058 7.18978 14.7706 5.99098 14.7706C5.31735 14.7706 4.67879 14.9392 4.11855 15.239C5.03578 10.0647 9.56672 6.12192 15 6.12192C20.4333 6.12192 24.9642 10.0647 25.8814 15.239C25.3212 14.9387 24.6826 14.7706 24.009 14.7706Z" fill="white"/>
</svg>
