<svg width="30" height="30" viewBox="0 0 30 30" fill="none" xmlns="http://www.w3.org/2000/svg">
<path d="M18.6705 18.6035V6.52941C18.6705 4.57976 17.0908 3 15.1411 3C13.1915 3 11.6117 4.57976 11.6117 6.52941V18.6035C10.7392 19.4951 10.2 20.7127 10.2 22.0588C10.2 24.7878 12.4122 27 15.1411 27C17.8701 27 20.0823 24.7878 20.0823 22.0588C20.0823 20.7127 19.543 19.4951 18.6705 18.6035ZM15.1411 25.5882C13.195 25.5882 11.6117 24.0049 11.6117 22.0588C11.6117 21.132 11.9703 20.256 12.6204 19.5918L13.0235 19.1802V18.6042V6.52941C13.0235 5.36188 13.9736 4.41176 15.1411 4.41176C16.3087 4.41176 17.2588 5.36188 17.2588 6.52941V18.6035V19.1795L17.6618 19.5911C18.312 20.2553 18.6705 21.132 18.6705 22.0581C18.6705 24.0049 17.0872 25.5882 15.1411 25.5882Z" fill="white"/>
<path d="M15.1411 19.9355C13.9686 19.9355 13.0178 20.8864 13.0178 22.0588C13.0178 23.232 13.9686 24.1821 15.1411 24.1821C16.3143 24.1821 17.2644 23.232 17.2644 22.0588C17.2644 20.8864 16.3143 19.9355 15.1411 19.9355ZM15.1411 22.7703C14.7486 22.7703 14.4296 22.4513 14.4296 22.0588C14.4296 21.6664 14.7486 21.3473 15.1411 21.3473C15.5336 21.3473 15.8527 21.6664 15.8527 22.0588C15.8527 22.4513 15.5329 22.7703 15.1411 22.7703Z" fill="white"/>
</svg>
