<svg width="30" height="30" viewBox="0 0 30 30" fill="none" xmlns="http://www.w3.org/2000/svg">
<path d="M15.0002 15.8002H5.00004C4.44853 15.8002 4.00002 15.3517 4.00002 14.8001C4.00002 14.2486 4.44853 13.8001 5.00004 13.8001H6.72258H7.00008V12.8001H5.00004C3.89552 12.8001 3 13.6956 3 14.8001C3 15.9047 3.89552 16.8002 5.00004 16.8002H15.0002C16.1028 16.8002 17.0003 17.6972 17.0003 18.8002C17.0003 19.9032 16.1028 20.8003 15.0002 20.8003V21.8003C16.6573 21.8003 18.0003 20.4573 18.0003 18.8002C18.0003 17.1432 16.6573 15.8002 15.0002 15.8002Z" fill="white"/>
<path d="M16.0003 7.8V8.80002C17.1028 8.80002 18.0003 9.69704 18.0003 10.8001C18.0003 11.9031 17.1028 12.8001 16.0003 12.8001H8.0061V13.8001H16.0003C17.6573 13.8001 19.0003 12.4566 19.0003 10.8001C19.0003 9.14253 17.6573 7.8 16.0003 7.8Z" fill="white"/>
<path d="M19.0004 13.8001V14.8001H21.7504V14.7746C23.0119 14.6476 24.0005 13.5956 24.0005 12.3001C24.0005 10.9191 22.8814 9.80004 21.5004 9.80004V10.8001C22.3274 10.8001 23.0004 11.4731 23.0004 12.3001C23.0004 13.1271 22.3274 13.8001 21.5004 13.8001C21.4789 13.8001 21.4589 13.7946 21.4374 13.7936H19.0064C19.0079 13.7961 19.0109 13.7981 19.0124 13.8001H19.0004Z" fill="white"/>
<path d="M24.5005 15.8002H19.0004V16.8002H22.5114C22.5094 16.8022 22.5074 16.8042 22.5059 16.8067H24.437C24.4585 16.8057 24.4785 16.8002 24.5 16.8002C25.327 16.8002 26 17.4732 26 18.3002C26 19.1272 25.327 19.8003 24.5 19.8003V20.8003C25.881 20.8003 27 19.6812 27 18.3002C27 16.9192 25.8815 15.8002 24.5005 15.8002Z" fill="white"/>
</svg>
